<svg width="70" height="50" viewBox="0 0 70 50" fill="none" xmlns="http://www.w3.org/2000/svg">
   <g id="bars">
         <line id="Line 2" x1="16" y1="25" x2="16" y2="48" stroke="black" stroke-width="2"/>
         <line id="Line 3" x1="21" y1="25" x2="21" y2="48" stroke="black" stroke-width="2"/>
         <line id="Line 4" x1="26" y1="25" x2="26" y2="48" stroke="black" stroke-width="2"/>
         <line id="Line 5" x1="31" y1="25" x2="31" y2="48" stroke="black" stroke-width="2"/>
         <line id="Line 6" x1="36" y1="25" x2="36" y2="48" stroke="black" stroke-width="2"/>
         <line id="Line 7" x1="41" y1="25" x2="41" y2="48" stroke="black" stroke-width="2"/>
         <line id="Line 8" x1="46" y1="25" x2="46" y2="48" stroke="black" stroke-width="2"/>
         <line id="Line 9" x1="51" y1="25" x2="51" y2="48" stroke="black" stroke-width="2"/>
         <line id="Line 10" x1="56" y1="25" x2="56" y2="48" stroke="black" stroke-width="2"/>
         <line id="Line 11" x1="61" y1="25" x2="61" y2="48" stroke="black" stroke-width="2"/>
         <line id="Line 12" x1="66" y1="25" x2="66" y2="48" stroke="black" stroke-width="2"/>
         <line id="Line 13" x1="71" y1="25" x2="71" y2="48" stroke="black" stroke-width="2"/>
         <line id="Line 14" x1="76" y1="25" x2="76" y2="48" stroke="black" stroke-width="2"/>
         <line id="Line 15" x1="81" y1="25" x2="81" y2="48" stroke="black" stroke-width="2"/>
         <line id="Line 16" x1="86" y1="25" x2="86" y2="48" stroke="black" stroke-width="2"/>
         <line id="Line 17" x1="91" y1="25" x2="91" y2="48" stroke="black" stroke-width="2"/>
      </g>
</svg>
